<?xml version="1.0" encoding="UTF-8" standalone="no"?>
<!-- Created with Inkscape (http://www.inkscape.org/) -->

<svg
   xmlns:dc="http://purl.org/dc/elements/1.1/"
   xmlns:cc="http://creativecommons.org/ns#"
   xmlns:rdf="http://www.w3.org/1999/02/22-rdf-syntax-ns#"
   xmlns:svg="http://www.w3.org/2000/svg"
   xmlns="http://www.w3.org/2000/svg"
   xmlns:sodipodi="http://sodipodi.sourceforge.net/DTD/sodipodi-0.dtd"
   xmlns:inkscape="http://www.inkscape.org/namespaces/inkscape"
   width="220.30023mm"
   height="50.446297mm"
   viewBox="0 0 220.30023 50.446297"
   version="1.1"
   id="svg1383"
   inkscape:version="0.92.4 (5da689c313, 2019-01-14)"
   sodipodi:docname="staircase-wide-inverse.svg">
  <defs
     id="defs1377">
    <marker
       inkscape:stockid="Arrow2Lend"
       orient="auto"
       refY="0"
       refX="0"
       id="marker8020"
       style="overflow:visible"
       inkscape:isstock="true"
       inkscape:collect="always">
      <path
         inkscape:connector-curvature="0"
         id="path8018"
         style="fill:#b3b3b3;fill-opacity:1;fill-rule:evenodd;stroke:none;stroke-width:0.625;stroke-linejoin:round;stroke-opacity:1"
         d="M 8.7185878,4.0337352 -2.2072895,0.01601326 8.7185884,-4.0017078 c -1.7454984,2.3720609 -1.7354408,5.6174519 -6e-7,8.035443 z"
         transform="matrix(-1.1,0,0,-1.1,-1.1,0)" />
    </marker>
    <marker
       inkscape:isstock="true"
       style="overflow:visible"
       id="marker7938"
       refX="0"
       refY="0"
       orient="auto"
       inkscape:stockid="Arrow2Lend"
       inkscape:collect="always">
      <path
         inkscape:connector-curvature="0"
         transform="matrix(-1.1,0,0,-1.1,-1.1,0)"
         d="M 8.7185878,4.0337352 -2.2072895,0.01601326 8.7185884,-4.0017078 c -1.7454984,2.3720609 -1.7354408,5.6174519 -6e-7,8.035443 z"
         style="fill:#b3b3b3;fill-opacity:1;fill-rule:evenodd;stroke:none;stroke-width:0.625;stroke-linejoin:round;stroke-opacity:1"
         id="path7936" />
    </marker>
  </defs>
  <sodipodi:namedview
     id="base"
     pagecolor="#ffffff"
     bordercolor="#666666"
     borderopacity="1.0"
     inkscape:pageopacity="0.0"
     inkscape:pageshadow="2"
     inkscape:zoom="0.7"
     inkscape:cx="565.08321"
     inkscape:cy="-185.81805"
     inkscape:document-units="mm"
     inkscape:current-layer="layer1"
     showgrid="false"
     fit-margin-top="0"
     fit-margin-left="0"
     fit-margin-right="0"
     fit-margin-bottom="0"
     inkscape:window-width="1920"
     inkscape:window-height="1001"
     inkscape:window-x="631"
     inkscape:window-y="1351"
     inkscape:window-maximized="1" />
  <metadata
     id="metadata1380">
    <rdf:RDF>
      <cc:Work
         rdf:about="">
        <dc:format>image/svg+xml</dc:format>
        <dc:type
           rdf:resource="http://purl.org/dc/dcmitype/StillImage" />
        <dc:title />
      </cc:Work>
    </rdf:RDF>
  </metadata>
  <g
     inkscape:label="Layer 1"
     inkscape:groupmode="layer"
     id="layer1"
     transform="translate(357.34654,34.383862)">
    <rect
       style="opacity:1;fill:#006c85;fill-opacity:1;stroke:none;stroke-width:3.99757862;stroke-linecap:round;stroke-linejoin:miter;stroke-miterlimit:4;stroke-dasharray:none;stroke-dashoffset:0;stroke-opacity:1;paint-order:markers stroke fill"
       id="rect1988"
       width="220.16219"
       height="50.372044"
       x="-357.28653"
       y="-34.397388" />
    <path
       inkscape:connector-curvature="0"
       id="path7928"
       d="m -269.87012,-29.656257 h 129.24411"
       style="fill:#b3b3b3;fill-opacity:1;stroke:#b3b3b3;stroke-width:2.05538464;stroke-linecap:butt;stroke-linejoin:miter;stroke-miterlimit:2.79999995;stroke-dasharray:none;stroke-opacity:1"
       inkscape:export-filename="C:\Users\Riley\Pictures\staircase\logo1.png"
       inkscape:export-xdpi="50"
       inkscape:export-ydpi="50" />
    <path
       inkscape:connector-curvature="0"
       id="path7932"
       d="m -270.92847,-29.756256 h 132.74038"
       style="fill:#b3b3b3;fill-opacity:1;stroke:none;stroke-width:0.68300009;stroke-linecap:butt;stroke-linejoin:miter;stroke-miterlimit:2.79999995;stroke-dasharray:none;stroke-opacity:1;marker-end:url(#marker7938)"
       inkscape:export-filename="C:\Users\Riley\Pictures\staircase\logo1.png"
       inkscape:export-xdpi="50"
       inkscape:export-ydpi="50" />
    <path
       inkscape:connector-curvature="0"
       id="path7930"
       d="m -354.23929,11.253865 h 76.57554"
       style="fill:none;stroke:#b3b3b3;stroke-width:1.58242583;stroke-linecap:butt;stroke-linejoin:miter;stroke-miterlimit:4;stroke-dasharray:none;stroke-opacity:1"
       inkscape:export-filename="C:\Users\Riley\Pictures\staircase\logo1.png"
       inkscape:export-xdpi="50"
       inkscape:export-ydpi="50" />
    <path
       id="path7904"
       style="font-style:normal;font-variant:normal;font-weight:normal;font-stretch:normal;font-size:192px;line-height:1.25;font-family:Righteous;-inkscape-font-specification:Righteous;letter-spacing:0px;word-spacing:0px;fill:#ffffff;fill-opacity:1;stroke:none;stroke-width:0.26458332"
       d="m -341.83026,4.0468662 h -15.47813 v -6.7468749 h 15.47813 q 0.69453,0 1.19062,-0.4960937 0.4961,-0.4960938 0.4961,-1.190625 0,-0.7193359 -0.4961,-0.9425781 -0.49609,-0.2232422 -1.19062,-0.2232422 h -7.04453 q -1.76115,0 -3.29904,-0.6697266 -1.53789,-0.6697265 -2.6789,-1.8107421 -1.14102,-1.1658203 -1.81073,-2.7037106 -0.64493,-1.537891 -0.64493,-3.299024 0,-1.761133 0.64493,-3.299023 0.66971,-1.537891 1.81073,-2.678906 1.14101,-1.141016 2.6789,-1.785938 1.53789,-0.669726 3.29904,-0.669726 h 13.71698 v 6.746875 h -13.71698 q -0.69453,0 -1.19063,0.496093 -0.49609,0.496094 -0.49609,1.190625 0,0.719336 0.49609,1.240235 0.4961,0.496093 1.19063,0.496093 h 7.04453 q 1.73633,0 3.27422,0.595313 1.53789,0.570508 2.6789,1.612305 1.14102,1.0417964 1.81073,2.5052729 0.66974,1.4634766 0.66974,3.1998047 0,1.7611328 -0.66974,3.2990234 -0.66971,1.5130859 -1.81073,2.6789062 -1.14101,1.1410156 -2.6789,1.8107422 -1.53789,0.6449218 -3.27422,0.6449218 z"
       inkscape:connector-curvature="0" />
    <path
       id="path7906"
       style="font-style:normal;font-variant:normal;font-weight:normal;font-stretch:normal;font-size:192px;line-height:1.25;font-family:Righteous;-inkscape-font-specification:Righteous;letter-spacing:0px;word-spacing:0px;fill:#ffffff;fill-opacity:1;stroke:none;stroke-width:0.26458332"
       d="m -316.50469,4.0468662 q -2.45565,0 -4.61367,-0.9177734 -2.15799,-0.9425781 -3.7951,-2.55488277 -1.61232,-1.63710933 -2.5549,-3.79511713 -0.91776,-2.1580078 -0.91776,-4.6136718 v -7.8878901 h -3.29904 v -6.746875 h 3.29904 V -33.08575 h 6.74687 v 10.616406 h 10.26915 v 6.746875 h -10.26915 v 7.8878901 q 0,1.0666015 0.39688,2.0091796 0.39687,0.9177735 1.09141,1.6123047 0.69453,0.6945312 1.63711,1.1162109 0.94257,0.396875 2.00916,0.396875 h 5.13459 v 6.7468749 z"
       inkscape:connector-curvature="0" />
    <path
       id="path7908"
       style="font-style:normal;font-variant:normal;font-weight:normal;font-stretch:normal;font-size:192px;line-height:1.25;font-family:Righteous;-inkscape-font-specification:Righteous;letter-spacing:0px;word-spacing:0px;fill:#ffffff;fill-opacity:1;stroke:none;stroke-width:0.26458332"
       d="m -281.87734,4.0468662 h -1.63711 l -2.6293,-3.64628898 q -0.96737,0.86816408 -2.05878,1.63710938 -1.06661,0.7441406 -2.25724,1.3146484 -1.19062,0.5457031 -2.45565,0.868164 -1.24023,0.3224602 -2.53008,0.3224602 -2.80294,0 -5.28341,-0.9425773 -2.45565,-0.9425781 -4.31601,-2.72851563 -1.83555,-1.81074216 -2.90214,-4.41523427 -1.06661,-2.6044922 -1.06661,-5.9283203 0,-3.1005857 1.06661,-5.6802737 1.06659,-2.604492 2.90214,-4.464843 1.86036,-1.860352 4.31601,-2.877344 2.48047,-1.041797 5.28341,-1.041797 1.28985,0 2.55487,0.322461 1.26506,0.322461 2.45568,0.892969 1.19063,0.570508 2.25721,1.339453 1.09141,0.768945 2.03399,1.661914 l 2.6293,-3.150195 h 1.63711 z m -6.82128,-13.5185545 q 0,-1.3890627 -0.5457,-2.6789067 -0.52092,-1.314648 -1.43868,-2.306835 -0.91778,-1.016993 -2.15802,-1.612305 -1.21541,-0.620117 -2.60448,-0.620117 -1.38906,0 -2.62929,0.471289 -1.21545,0.471289 -2.13321,1.389062 -0.89296,0.917774 -1.41388,2.282032 -0.52088,1.339453 -0.52088,3.0757807 0,1.7363281 0.52088,3.1005859 0.52092,1.3394531 1.41388,2.2572265 0.91776,0.9177735 2.13321,1.3890625 1.24023,0.4712891 2.62929,0.4712891 1.38907,0 2.60448,-0.5953125 1.24024,-0.6201172 2.15802,-1.6123047 0.91776,-1.0169921 1.43868,-2.3068359 0.5457,-1.3146484 0.5457,-2.7037109 z"
       inkscape:connector-curvature="0" />
    <path
       id="path7912"
       d="m -269.82227,4.0468662 h -6.82127 V -22.518954 h 6.82127 z"
       style="font-style:normal;font-variant:normal;font-weight:normal;font-stretch:normal;font-size:192px;line-height:1.25;font-family:Righteous;-inkscape-font-specification:Righteous;letter-spacing:0px;word-spacing:0px;fill:#ffffff;fill-opacity:1;stroke:none;stroke-width:0.26458332"
       inkscape:connector-curvature="0" />
    <path
       id="path7914"
       style="font-style:normal;font-variant:normal;font-weight:normal;font-stretch:normal;font-size:192px;line-height:1.25;font-family:Righteous;-inkscape-font-specification:Righteous;letter-spacing:0px;word-spacing:0px;fill:#ffffff;fill-opacity:1;stroke:none;stroke-width:0.26458332"
       d="m -257.86641,4.0468662 h -6.77166 V -22.518954 h 1.63711 l 2.23242,3.150196 q 1.63711,-1.488282 3.7207,-2.282032 2.08359,-0.818554 4.31602,-0.818554 h 5.97791 v 6.746875 h -5.97791 q -1.06662,0 -2.0092,0.396875 -0.94258,0.396875 -1.63711,1.091406 -0.69453,0.694531 -1.0914,1.637109 -0.39688,0.942578 -0.39688,2.00918 z"
       inkscape:connector-curvature="0" />
    <path
       id="path7916"
       style="font-style:normal;font-variant:normal;font-weight:normal;font-stretch:normal;font-size:192px;line-height:1.25;font-family:Righteous;-inkscape-font-specification:Righteous;letter-spacing:0px;word-spacing:0px;fill:#ffffff;fill-opacity:1;stroke:none;stroke-width:0.26458332"
       d="m -220.833,-17.235555 -4.96093,4.985742 q -0.37209,-1.041797 -1.01701,-1.860352 -0.64492,-0.843359 -1.46346,-1.413867 -0.79375,-0.570508 -1.73633,-0.868164 -0.94258,-0.297656 -1.93477,-0.297656 -1.38906,0 -2.62929,0.570508 -1.21545,0.570507 -2.13321,1.612304 -0.89297,1.016992 -1.41388,2.43086 -0.52088,1.413867 -0.52088,3.1253901 0,1.3890625 0.52088,2.6044922 0.52091,1.2154297 1.41388,2.1332031 0.91776,0.9177734 2.13321,1.4386719 1.24023,0.5208984 2.62929,0.5208984 0.99219,0 1.90995,-0.2728516 0.91779,-0.2728515 1.71154,-0.7689453 0.81854,-0.5208984 1.43867,-1.2402343 0.64492,-0.7441406 1.0418,-1.6371094 l 4.96093,4.9857421 q -0.94257,1.33945314 -2.18281,2.4060547 -1.21544,1.0666015 -2.65411,1.8107422 -1.41386,0.7441406 -3.00136,1.1162109 -1.56271,0.3968742 -3.22461,0.3968742 -2.80294,0 -5.28341,-1.0417961 -2.45565,-1.0666015 -4.31601,-2.90214839 -1.83555,-1.83554681 -2.90214,-4.29121091 -1.06661,-2.455664 -1.06661,-5.2585937 0,-3.0509761 1.06661,-5.7050781 1.06659,-2.654101 2.90214,-4.613672 1.86036,-1.984375 4.31601,-3.12539 2.48047,-1.141016 5.28341,-1.141016 1.6619,0 3.2494,0.42168 1.61232,0.421679 3.05099,1.240234 1.46347,0.79375 2.67891,1.95957 1.24023,1.165821 2.1332,2.678907 z"
       inkscape:connector-curvature="0" />
    <path
       id="path7918"
       style="font-style:normal;font-variant:normal;font-weight:normal;font-stretch:normal;font-size:192px;line-height:1.25;font-family:Righteous;-inkscape-font-specification:Righteous;letter-spacing:0px;word-spacing:0px;fill:#ffffff;fill-opacity:1;stroke:none;stroke-width:0.26458332"
       d="m -192.1836,4.0468662 h -1.63711 L -196.45,0.40057722 q -0.96737,0.86816408 -2.05878,1.63710938 -1.06661,0.7441406 -2.25724,1.3146484 -1.19062,0.5457031 -2.45565,0.868164 -1.24023,0.3224602 -2.53008,0.3224602 -2.80294,0 -5.28341,-0.9425773 -2.45565,-0.9425781 -4.31601,-2.72851563 -1.83555,-1.81074216 -2.90214,-4.41523427 -1.06661,-2.6044922 -1.06661,-5.9283203 0,-3.1005857 1.06661,-5.6802737 1.06659,-2.604492 2.90214,-4.464843 1.86036,-1.860352 4.31601,-2.877344 2.48047,-1.041797 5.28341,-1.041797 1.28985,0 2.55487,0.322461 1.26506,0.322461 2.45568,0.892969 1.19063,0.570508 2.25721,1.339453 1.09141,0.768945 2.03399,1.661914 l 2.62929,-3.150195 h 1.63711 z m -6.82127,-13.5185545 q 0,-1.3890627 -0.5457,-2.6789067 -0.52092,-1.314648 -1.43868,-2.306835 -0.91778,-1.016993 -2.15802,-1.612305 -1.21541,-0.620117 -2.60448,-0.620117 -1.38906,0 -2.62929,0.471289 -1.21545,0.471289 -2.13321,1.389062 -0.89297,0.917774 -1.41388,2.282032 -0.52088,1.339453 -0.52088,3.0757807 0,1.7363281 0.52088,3.1005859 0.52091,1.3394531 1.41388,2.2572265 0.91776,0.9177735 2.13321,1.3890625 1.24023,0.4712891 2.62929,0.4712891 1.38907,0 2.60448,-0.5953125 1.24024,-0.6201172 2.15802,-1.6123047 0.91776,-1.0169921 1.43868,-2.3068359 0.5457,-1.3146484 0.5457,-2.7037109 z"
       inkscape:connector-curvature="0" />
    <path
       id="path7920"
       style="font-style:normal;font-variant:normal;font-weight:normal;font-stretch:normal;font-size:192px;line-height:1.25;font-family:Righteous;-inkscape-font-specification:Righteous;letter-spacing:0px;word-spacing:0px;fill:#ffffff;fill-opacity:1;stroke:none;stroke-width:0.26458332"
       d="m -172.36464,4.0468662 h -15.47812 v -6.7468749 h 15.47812 q 0.69453,0 1.19063,-0.4960937 0.49609,-0.4960938 0.49609,-1.190625 0,-0.7193359 -0.49609,-0.9425781 -0.4961,-0.2232422 -1.19063,-0.2232422 h -7.04453 q -1.76114,0 -3.29904,-0.6697266 -1.53789,-0.6697265 -2.6789,-1.8107421 -1.14102,-1.1658203 -1.81073,-2.7037106 -0.64492,-1.537891 -0.64492,-3.299024 0,-1.761133 0.64492,-3.299023 0.66971,-1.537891 1.81073,-2.678906 1.14101,-1.141016 2.6789,-1.785938 1.5379,-0.669726 3.29904,-0.669726 h 13.71698 v 6.746875 h -13.71698 q -0.69453,0 -1.19062,0.496093 -0.4961,0.496094 -0.4961,1.190625 0,0.719336 0.4961,1.240235 0.49609,0.496093 1.19062,0.496093 h 7.04453 q 1.73633,0 3.27422,0.595313 1.53789,0.570508 2.67891,1.612305 1.14101,1.0417964 1.81073,2.5052729 0.66974,1.4634766 0.66974,3.1998047 0,1.7611328 -0.66974,3.2990234 -0.66972,1.5130859 -1.81073,2.6789062 -1.14102,1.1410156 -2.67891,1.8107422 -1.53789,0.6449218 -3.27422,0.6449218 z"
       inkscape:connector-curvature="0" />
    <path
       id="path7922"
       style="font-style:normal;font-variant:normal;font-weight:normal;font-stretch:normal;font-size:192px;line-height:1.25;font-family:Righteous;-inkscape-font-specification:Righteous;letter-spacing:0px;word-spacing:0px;fill:#ffffff;fill-opacity:1;stroke:none;stroke-width:0.26458332"
       d="m -149.79237,-2.4519618 q 0.39687,0.1240234 0.79375,0.1736328 0.39687,0.024791 0.79375,0.024791 0.99218,0 1.90995,-0.2728516 0.91778,-0.2728516 1.71153,-0.7689453 0.81854,-0.5208984 1.43867,-1.2402344 0.64493,-0.7441406 1.0418,-1.6371093 l 4.96094,4.9857421 q -0.94258,1.33945312 -2.18281,2.4060547 -1.21545,1.0666015 -2.65412,1.8107421 -1.41385,0.7441406 -3.00135,1.116211 -1.56271,0.3968742 -3.22461,0.3968742 -2.80295,0 -5.28341,-1.0417961 -2.45565,-1.0417969 -4.31602,-2.90214842 -1.83555,-1.86035158 -2.90213,-4.41523428 -1.06662,-2.5796875 -1.06662,-5.6554687 0,-3.150195 1.06662,-5.754688 1.06658,-2.604491 2.90213,-4.440038 1.86037,-1.835547 4.31602,-2.852539 2.48046,-1.016992 5.28341,-1.016992 1.6619,0 3.2494,0.396875 1.5875,0.396875 3.00138,1.141015 1.43867,0.744141 2.6789,1.835547 1.24024,1.066602 2.18282,2.406055 z m 3.47265,-13.9650392 q -0.4713,-0.173633 -0.94257,-0.223242 -0.44649,-0.04961 -0.94258,-0.04961 -1.38906,0 -2.6293,0.520898 -1.21544,0.496094 -2.1332,1.438672 -0.89297,0.942578 -1.41388,2.282031 -0.52089,1.314649 -0.52089,2.9765627 0,0.3720703 0.0249,0.8433594 0.0496,0.471289 0.12404,0.9673828 0.0992,0.471289 0.22323,0.9177734 0.12404,0.4464844 0.32247,0.79375 z"
       inkscape:connector-curvature="0" />
    <circle
       r="3.8170993"
       cy="11.443434"
       cx="-273.23303"
       id="circle7926"
       style="opacity:1;fill:none;fill-opacity:1;stroke:#b3b3b3;stroke-width:1.60380125;stroke-miterlimit:4;stroke-dasharray:none;stroke-opacity:1"
       inkscape:export-filename="C:\Users\Riley\Pictures\staircase\logo1.png"
       inkscape:export-xdpi="50"
       inkscape:export-ydpi="50" />
    <path
       id="path7910"
       d="m -268.65643,-29.737118 q 0,0.942578 -0.37209,1.761133 -0.34726,0.818555 -0.96737,1.438672 -0.62013,0.595312 -1.46349,0.967383 -0.81854,0.347265 -1.76112,0.347265 -0.94257,0 -1.78593,-0.347265 -0.81857,-0.372071 -1.43868,-0.967383 -0.59531,-0.620117 -0.96739,-1.438672 -0.34727,-0.818555 -0.34727,-1.761133 0,-0.917773 0.34727,-1.736328 0.37208,-0.843359 0.96739,-1.438672 0.62011,-0.620117 1.43868,-0.967382 0.84336,-0.372071 1.78593,-0.372071 0.94258,0 1.76112,0.372071 0.84336,0.347265 1.46349,0.967382 0.62011,0.595313 0.96737,1.438672 0.37209,0.818555 0.37209,1.736328 z"
       style="font-style:normal;font-variant:normal;font-weight:normal;font-stretch:normal;font-size:192px;line-height:1.25;font-family:Righteous;-inkscape-font-specification:Righteous;letter-spacing:0px;word-spacing:0px;fill:#b3b3b3;fill-opacity:1;stroke:none;stroke-width:0.26458332;stroke-opacity:1"
       inkscape:connector-curvature="0" />
    <path
       sodipodi:nodetypes="cc"
       style="fill:#b3b3b3;fill-opacity:1;stroke:none;stroke-width:0.68300009;stroke-linecap:butt;stroke-linejoin:miter;stroke-miterlimit:2.79999995;stroke-dasharray:none;stroke-opacity:1;marker-end:url(#marker8020)"
       d="m -279.02689,11.277685 h -77.17788"
       id="path7934"
       inkscape:connector-curvature="0"
       inkscape:export-filename="C:\Users\Riley\Pictures\staircase\logo1.png"
       inkscape:export-xdpi="50"
       inkscape:export-ydpi="50" />
  </g>
</svg>
